<?xml version="1.0" standalone="no"?>
<!DOCTYPE svg PUBLIC "-//W3C//DTD SVG 20010904//EN"
 "http://www.w3.org/TR/2001/REC-SVG-20010904/DTD/svg10.dtd">
<svg version="1.0" xmlns="http://www.w3.org/2000/svg"
 width="500.000000pt" height="500.000000pt" viewBox="0 0 500.000000 500.000000"
 preserveAspectRatio="xMidYMid meet">

<g transform="translate(0.000000,500.000000) scale(0.100000,-0.100000)"
fill="#000000" stroke="none">
<path d="M1495 4169 c-363 -53 -643 -352 -695 -744 -8 -65 -11 -296 -8 -830 3
-728 4 -741 26 -820 72 -261 257 -482 480 -574 141 -58 91 -56 1192 -56 1145
0 1059 -6 1235 80 210 101 368 297 437 540 22 80 22 84 26 845 2 509 -1 788
-8 833 -13 88 -57 219 -86 263 -13 19 -21 34 -18 34 6 0 -41 66 -74 102 -13
14 -21 31 -18 36 3 5 -1 15 -9 22 -8 7 -15 9 -15 4 0 -5 -26 17 -57 47 -32 31
-72 66 -90 78 -54 37 -235 108 -308 121 -38 7 -83 16 -99 21 -37 12 -1832 9
-1911 -2z m1682 -271 c22 -22 25 -30 15 -40 -18 -18 -138 -27 -407 -31 -135
-2 -187 -1 -125 3 104 7 -30 5 -345 -3 l-120 -4 110 6 c61 3 -74 7 -300 8
-232 1 -438 -2 -475 -8 -103 -16 -161 -48 -249 -138 -74 -76 -99 -115 -81
-126 4 -3 369 -5 811 -5 675 -1 809 -3 837 -15 l34 -15 -21 -27 c-11 -16 -85
-93 -164 -172 l-145 -143 -93 -10 c-52 -5 -121 -7 -154 -4 -33 4 -120 7 -192
8 -73 0 -133 4 -133 8 0 4 -195 6 -432 4 l-433 -2 0 -639 c0 -712 0 -709 69
-817 20 -31 36 -60 36 -64 0 -33 47 -83 82 -86 3 -1 10 -5 15 -10 5 -5 3 -6
-4 -2 -7 4 -13 5 -13 3 0 -3 16 -14 36 -26 19 -12 32 -17 29 -11 -7 11 57 -21
66 -34 4 -5 11 -6 17 -2 6 3 13 2 16 -3 16 -25 203 -33 736 -29 300 2 637 1
750 -4 385 -15 443 -10 599 52 109 43 190 116 255 232 65 117 66 132 64 825
l-3 618 -53 1 -52 1 50 -4 c91 -7 52 -18 -63 -18 -169 1 -216 5 -192 15 17 7
18 9 2 9 -18 1 -5 16 181 211 89 93 92 97 74 114 -11 9 -32 40 -47 69 -45 82
-119 170 -167 197 l-43 25 46 3 c33 2 56 -3 80 -18 19 -11 42 -23 52 -26 9 -4
17 -10 17 -15 0 -4 20 -29 45 -56 24 -26 52 -64 61 -83 9 -19 27 -47 40 -62
12 -16 26 -38 29 -50 4 -13 13 -30 20 -38 31 -37 35 -122 35 -834 0 -676 -1
-717 -20 -790 -67 -262 -263 -447 -517 -486 -45 -7 -379 -10 -1003 -8 l-935 3
-65 23 c-90 33 -138 63 -219 138 -85 79 -139 157 -183 267 l-33 82 0 780 0
780 29 80 c54 150 170 298 276 354 23 12 79 33 124 46 l81 24 817 -2 818 -2
27 -27z m-634 -75 c-7 -2 -19 -2 -25 0 -7 3 -2 5 12 5 14 0 19 -2 13 -5z m912
-137 c56 -26 88 -57 104 -99 24 -63 20 -71 -157 -251 -92 -94 -273 -279 -402
-411 -413 -423 -472 -479 -519 -494 -54 -16 -112 -17 -139 -2 -12 7 -22 9 -22
5 0 -4 -17 10 -37 32 -21 21 -41 38 -45 36 -4 -1 -5 4 -2 12 3 8 0 17 -7 22
-8 5 -10 3 -4 -6 5 -8 4 -11 -2 -7 -5 3 -10 22 -11 42 -1 20 -4 40 -7 46 -11
17 25 105 53 131 29 28 105 48 148 40 23 -4 55 24 303 274 152 154 351 357
444 452 147 152 205 200 242 202 6 0 33 -11 60 -24z m-1993 -719 c4 -7 8 -101
8 -209 0 -108 3 -203 6 -212 5 -13 -2 -16 -41 -16 -40 0 -52 5 -80 33 l-32 32
-2 162 c-2 170 7 220 45 241 20 11 82 -9 96 -31z m216 21 c9 -8 12 -65 12
-223 l0 -213 55 -4 c46 -2 54 -1 48 12 -9 18 -13 336 -6 398 5 38 8 42 34 42
34 0 77 -35 86 -70 3 -14 8 -86 10 -162 6 -158 -7 -204 -58 -215 -16 -3 -27
-9 -24 -13 3 -4 -32 -6 -78 -4 -45 2 -125 5 -177 6 -52 1 -75 3 -51 5 l44 4
-5 177 c-3 97 -3 201 -1 230 l6 53 46 -7 c25 -4 52 -11 59 -16z m-121 -685
c154 -6 184 -16 149 -51 -14 -14 -42 -18 -177 -20 -167 -4 -178 -2 -201 41 -7
14 -7 17 1 13 6 -4 11 -1 11 8 0 17 26 26 55 19 11 -2 84 -7 162 -10z m1635
-34 c40 -11 75 -57 64 -86 -4 -8 16 5 43 30 69 61 123 76 199 53 62 -18 84
-24 93 -25 14 -2 57 -50 51 -57 -4 -4 -2 -4 4 -1 10 6 32 -10 33 -23 0 -3 12
-32 27 -65 69 -150 -16 -343 -163 -371 -18 -3 -33 -10 -33 -15 0 -5 -21 -9
-46 -9 -32 0 -43 3 -38 12 5 8 2 9 -10 5 -59 -23 -179 75 -203 166 -17 63 -16
155 1 205 16 44 11 51 -37 53 -20 1 -20 2 3 9 18 6 9 8 -35 8 -45 0 -54 -2
-35 -8 21 -7 19 -8 -14 -7 -48 2 -78 -30 -101 -105 -19 -66 -19 -76 5 -123 11
-22 21 -46 23 -55 4 -28 32 -39 95 -40 58 0 65 -3 93 -32 36 -40 36 -47 -1
-59 -16 -6 -28 -15 -25 -19 3 -5 -30 -7 -72 -5 -43 2 -79 9 -81 14 -2 6 -8 9
-13 5 -5 -3 -9 0 -9 5 0 6 -3 10 -7 10 -21 -3 -33 2 -27 13 4 6 3 8 -4 4 -5
-3 -30 13 -54 36 -23 23 -38 39 -32 35 6 -3 -2 19 -18 50 -34 69 -36 130 -7
209 54 143 195 221 331 183z m-795 -251 c36 -13 48 -36 39 -73 -8 -32 -36 -46
-98 -47 -44 -1 -54 2 -75 26 -43 51 -23 93 47 99 25 2 47 4 49 5 3 1 20 -3 38
-10z m-694 -16 c21 -18 22 -51 3 -78 -12 -15 -33 -21 -108 -27 -203 -17 -230
-17 -247 2 -11 11 -13 12 -6 1 7 -12 6 -13 -5 -3 -23 21 -23 74 0 98 20 21 29
22 183 22 131 0 165 -2 180 -15z m416 -8 c27 -34 26 -40 -4 -69 -21 -22 -33
-25 -92 -25 -38 0 -83 -4 -101 -9 -20 -6 -32 -6 -32 0 0 5 -6 9 -14 9 -20 0
-46 39 -46 67 0 41 34 53 156 53 110 0 113 -1 133 -26z m-76 -111 c-7 -2 -19
-2 -25 0 -7 3 -2 5 12 5 14 0 19 -2 13 -5z m-963 -223 c6 -11 8 -20 6 -20 -3
0 -10 9 -16 20 -6 11 -8 20 -6 20 3 0 10 -9 16 -20z m40 -60 c12 -16 19 -30
16 -30 -2 0 -14 14 -26 30 -12 17 -19 30 -16 30 2 0 14 -13 26 -30z m154 -146
c32 -24 55 -44 51 -44 -18 0 -175 126 -175 141 0 4 15 -6 33 -23 17 -16 58
-50 91 -74z m126 -74 c8 -5 11 -10 5 -10 -5 0 -17 5 -25 10 -8 5 -10 10 -5 10
6 0 17 -5 25 -10z m2053 -37 c-7 -2 -19 -2 -25 0 -7 3 -2 5 12 5 14 0 19 -2
13 -5z"/>
<path d="M2498 3193 c6 -2 18 -2 25 0 6 3 1 5 -13 5 -14 0 -19 -2 -12 -5z"/>
<path d="M1336 2597 c3 -10 9 -15 12 -12 3 3 0 11 -7 18 -10 9 -11 8 -5 -6z"/>
<path d="M3468 2153 c7 -3 16 -2 19 1 4 3 -2 6 -13 5 -11 0 -14 -3 -6 -6z"/>
<path d="M3370 2118 c-19 -21 -21 -30 -15 -108 4 -47 13 -106 22 -132 14 -46
16 -48 53 -48 73 0 138 42 166 107 15 35 19 83 6 83 -7 0 -35 64 -37 83 0 4
-4 8 -10 9 -5 0 -24 7 -42 15 -52 21 -119 17 -143 -9z"/>
</g>
</svg>
